<svg width="960" height="640" viewBox="0 0 960 640" fill="none" xmlns="http://www.w3.org/2000/svg">
  <rect width="960" height="640" rx="28" fill="#F6F1E9"/>
  <rect x="102" y="86" width="252" height="468" rx="38" fill="#2F241B"/>
  <rect x="126" y="126" width="204" height="378" rx="28" fill="#FFFFFF"/>
  <circle cx="228" cy="158" r="8" fill="#C88A38"/>
  <rect x="164" y="214" width="128" height="16" rx="8" fill="#443326"/>
  <rect x="164" y="260" width="88" height="12" rx="6" fill="#C88A38"/>
  <rect x="164" y="300" width="128" height="72" rx="16" fill="#F6EAD8"/>
  <path d="M188 338h80" stroke="#568267" stroke-width="10" stroke-linecap="round"/>
  <rect x="164" y="404" width="128" height="12" rx="6" fill="#E8E0D5"/>
  <rect x="164" y="434" width="98" height="12" rx="6" fill="#E8E0D5"/>
  <rect x="430" y="132" width="408" height="316" rx="28" fill="#FFFFFF"/>
  <rect x="466" y="178" width="148" height="16" rx="8" fill="#443326"/>
  <rect x="466" y="222" width="318" height="84" rx="18" fill="#FAF8F4"/>
  <path d="M502 268h70" stroke="#B7792B" stroke-width="12" stroke-linecap="round"/>
  <path d="M622 268h118" stroke="#568267" stroke-width="12" stroke-linecap="round"/>
  <rect x="466" y="334" width="84" height="78" rx="18" fill="#F6EAD8"/>
  <rect x="582" y="334" width="84" height="78" rx="18" fill="#F6F1E9"/>
  <rect x="698" y="334" width="84" height="78" rx="18" fill="#E8E0D5" fill-opacity="0.55"/>
  <path d="M502 374h18" stroke="#2F241B" stroke-width="10" stroke-linecap="round"/>
  <path d="M618 374h18" stroke="#2F241B" stroke-width="10" stroke-linecap="round"/>
  <path d="M734 374h18" stroke="#2F241B" stroke-width="10" stroke-linecap="round"/>
  <circle cx="772" cy="118" r="42" fill="#E8C894" fill-opacity="0.5"/>
  <circle cx="430" cy="520" r="52" fill="#568267" fill-opacity="0.14"/>
</svg>
