<svg width="960" height="640" viewBox="0 0 960 640" fill="none" xmlns="http://www.w3.org/2000/svg">
  <rect width="960" height="640" rx="28" fill="#FAF8F4"/>
  <rect x="96" y="92" width="768" height="456" rx="36" fill="#F6F1E9"/>
  <path d="M244 320C244 205 338 112 454 112C570 112 664 205 664 320C664 435 570 528 454 528C338 528 244 435 244 320Z" stroke="#443326" stroke-width="38"/>
  <path d="M630 224C688 239 734 288 744 350C754 417 718 480 660 507" stroke="#C88A38" stroke-width="32" stroke-linecap="round"/>
  <rect x="402" y="96" width="142" height="92" rx="24" fill="#2F241B"/>
  <rect x="430" y="126" width="86" height="32" rx="16" fill="#E8C894"/>
  <rect x="388" y="438" width="180" height="74" rx="24" fill="#FFFFFF"/>
  <path d="M428 476h100" stroke="#568267" stroke-width="12" stroke-linecap="round"/>
  <circle cx="478" cy="476" r="52" stroke="#E8C894" stroke-width="10"/>
  <circle cx="160" cy="174" r="36" fill="#568267" fill-opacity="0.18"/>
  <circle cx="790" cy="462" r="46" fill="#E8C894" fill-opacity="0.45"/>
</svg>
