<svg width="960" height="640" viewBox="0 0 960 640" fill="none" xmlns="http://www.w3.org/2000/svg">
  <rect width="960" height="640" rx="28" fill="#F6F1E9"/>
  <rect x="104" y="118" width="752" height="386" rx="34" fill="#FFFFFF"/>
  <rect x="146" y="170" width="236" height="238" rx="26" fill="#FAF8F4"/>
  <rect x="438" y="170" width="376" height="238" rx="26" fill="#F6EAD8"/>
  <circle cx="222" cy="246" r="44" fill="#E8C894"/>
  <path d="M170 352c18-46 58-72 104-72s86 26 104 72" stroke="#443326" stroke-width="18" stroke-linecap="round"/>
  <circle cx="552" cy="270" r="42" fill="#568267" fill-opacity="0.32"/>
  <circle cx="676" cy="270" r="42" fill="#E8C894"/>
  <path d="M506 360h216" stroke="#443326" stroke-width="14" stroke-linecap="round"/>
  <path d="M506 404h154" stroke="#B7792B" stroke-width="12" stroke-linecap="round"/>
  <rect x="196" y="452" width="568" height="38" rx="19" fill="#2F241B" fill-opacity="0.08"/>
  <path d="M246 471h116" stroke="#568267" stroke-width="10" stroke-linecap="round"/>
  <path d="M424 471h116" stroke="#C88A38" stroke-width="10" stroke-linecap="round"/>
  <path d="M602 471h116" stroke="#568267" stroke-width="10" stroke-linecap="round"/>
  <circle cx="814" cy="130" r="48" fill="#E8C894" fill-opacity="0.45"/>
  <circle cx="120" cy="506" r="42" fill="#568267" fill-opacity="0.12"/>
</svg>
