<svg xmlns="http://www.w3.org/2000/svg" viewBox="0 0 1200 630" role="img" aria-label="知宠 ZHIPET 官网分享图">
  <defs>
    <linearGradient id="bg" x1="0" y1="0" x2="1" y2="1">
      <stop offset="0" stop-color="#faf8f4"/>
      <stop offset="1" stop-color="#f6ead8"/>
    </linearGradient>
    <pattern id="grid" width="48" height="48" patternUnits="userSpaceOnUse">
      <path d="M48 0H0v48" fill="none" stroke="#e8e0d5" stroke-width="1"/>
    </pattern>
  </defs>
  <rect width="1200" height="630" fill="url(#bg)"/>
  <rect width="1200" height="630" fill="url(#grid)" opacity=".36"/>
  <circle cx="910" cy="120" r="220" fill="#e8c894" opacity=".28"/>
  <circle cx="1010" cy="500" r="260" fill="#66503c" opacity=".08"/>
  <g transform="translate(760 178)">
    <rect x="0" y="0" width="250" height="250" rx="54" fill="#2f241b"/>
    <path d="M64 122c0-49 34-86 78-86s78 37 78 86c0 44-34 80-78 80s-78-36-78-80Z" fill="#faf8f4"/>
    <path d="M78 107c-21-15-30-39-20-58 24 0 43 14 53 34m95 24c21-15 30-39 20-58-24 0-43 14-53 34" fill="none" stroke="#faf8f4" stroke-width="22" stroke-linecap="round" stroke-linejoin="round"/>
    <circle cx="116" cy="124" r="12" fill="#b7792b"/>
    <circle cx="168" cy="124" r="12" fill="#b7792b"/>
    <path d="M128 162c9 8 19 8 28 0" fill="none" stroke="#b7792b" stroke-width="12" stroke-linecap="round"/>
  </g>
  <g transform="translate(104 132)">
    <text x="0" y="60" fill="#2f241b" font-family="Inter, MiSans, 'Noto Sans SC', sans-serif" font-size="54" font-weight="800">知宠 ZHIPET</text>
    <text x="0" y="136" fill="#2f241b" font-family="Inter, MiSans, 'Noto Sans SC', sans-serif" font-size="66" font-weight="800">用 AI 理解宠物的</text>
    <text x="0" y="214" fill="#2f241b" font-family="Inter, MiSans, 'Noto Sans SC', sans-serif" font-size="66" font-weight="800">日常信号</text>
    <text x="0" y="282" fill="#66503c" font-family="Inter, MiSans, 'Noto Sans SC', sans-serif" font-size="30" font-weight="600">声音、行为、活动与成长记录的趋势提示</text>
    <rect x="0" y="344" width="530" height="72" rx="36" fill="#ffffff" stroke="#e8e0d5"/>
    <text x="34" y="391" fill="#b7792b" font-family="Inter, MiSans, 'Noto Sans SC', sans-serif" font-size="26" font-weight="750">依据清晰 · 不确定性透明 · 数据谨慎处理</text>
  </g>
</svg>
