<svg width="960" height="640" viewBox="0 0 960 640" fill="none" xmlns="http://www.w3.org/2000/svg">
  <rect width="960" height="640" rx="28" fill="#FAF8F4"/>
  <rect x="88" y="118" width="784" height="404" rx="34" fill="#FFFFFF"/>
  <rect x="132" y="176" width="180" height="244" rx="24" fill="#F6F1E9"/>
  <rect x="390" y="176" width="180" height="244" rx="24" fill="#F6EAD8"/>
  <rect x="648" y="176" width="180" height="244" rx="24" fill="#F6F1E9"/>
  <path d="M182 254h80" stroke="#443326" stroke-width="12" stroke-linecap="round"/>
  <path d="M182 298h54" stroke="#B7792B" stroke-width="10" stroke-linecap="round"/>
  <path d="M440 254h80" stroke="#443326" stroke-width="12" stroke-linecap="round"/>
  <path d="M440 298h54" stroke="#568267" stroke-width="10" stroke-linecap="round"/>
  <path d="M698 254h80" stroke="#443326" stroke-width="12" stroke-linecap="round"/>
  <path d="M698 298h54" stroke="#B7792B" stroke-width="10" stroke-linecap="round"/>
  <circle cx="222" cy="360" r="32" fill="#E8C894"/>
  <circle cx="480" cy="360" r="32" fill="#568267" fill-opacity="0.35"/>
  <circle cx="738" cy="360" r="32" fill="#E8C894"/>
  <path d="M326 298h42" stroke="#C88A38" stroke-width="10" stroke-linecap="round"/>
  <path d="m354 276 24 22-24 22" stroke="#C88A38" stroke-width="10" stroke-linecap="round" stroke-linejoin="round"/>
  <path d="M584 298h42" stroke="#C88A38" stroke-width="10" stroke-linecap="round"/>
  <path d="m612 276 24 22-24 22" stroke="#C88A38" stroke-width="10" stroke-linecap="round" stroke-linejoin="round"/>
  <circle cx="146" cy="112" r="40" fill="#568267" fill-opacity="0.14"/>
  <circle cx="816" cy="526" r="52" fill="#E8C894" fill-opacity="0.45"/>
</svg>
