<svg width="960" height="720" viewBox="0 0 960 720" fill="none" xmlns="http://www.w3.org/2000/svg"><rect width="960" height="720" rx="36" fill="#F6F1E9"/><circle cx="744" cy="160" r="116" fill="#E8C894" fill-opacity="0.45"/><circle cx="206" cy="570" r="132" fill="#568267" fill-opacity="0.12"/><path d="M172 502C202 410 283 338 382 326C502 311 617 379 666 488C688 537 651 594 597 594H233C190 594 158 543 172 502Z" fill="#FFFFFF"/><path d="M267 316C292 251 350 208 416 208C491 208 555 264 568 338" stroke="#443326" stroke-width="18" stroke-linecap="round"/><path d="M407 210C388 166 418 111 468 103C526 94 576 146 560 202" fill="#C88A38" fill-opacity="0.22"/><circle cx="379" cy="314" r="78" fill="#E8C894"/><path d="M312 383C342 352 389 340 429 358C461 372 482 402 489 436" stroke="#2F241B" stroke-width="20" stroke-linecap="round"/><path d="M532 415C534 351 585 303 649 303C713 303 764 353 764 418V513C764 542 741 565 712 565H584C555 565 532 542 532 513V415Z" fill="#568267" fill-opacity="0.2"/><path d="M597 340C611 312 650 302 677 322C695 335 704 357 699 379" stroke="#568267" stroke-width="18" stroke-linecap="round"/><circle cx="622" cy="408" r="10" fill="#2F241B"/><circle cx="695" cy="408" r="10" fill="#2F241B"/><path d="M645 452C662 463 681 463 698 452" stroke="#2F241B" stroke-width="12" stroke-linecap="round"/><rect x="628" y="512" width="92" height="22" rx="11" fill="#B7792B"/><rect x="132" y="124" width="232" height="314" rx="34" fill="#2F241B"/><rect x="155" y="154" width="186" height="254" rx="24" fill="#FAF8F4"/><path d="M188 218H308" stroke="#66503C" stroke-width="12" stroke-linecap="round"/><path d="M188 263H276" stroke="#C88A38" stroke-width="10" stroke-linecap="round"/><path d="M188 305H312" stroke="#E8E0D5" stroke-width="12" stroke-linecap="round"/><path d="M188 346H290" stroke="#E8E0D5" stroke-width="12" stroke-linecap="round"/><circle cx="248" cy="180" r="8" fill="#C88A38"/><rect x="668" y="132" width="150" height="112" rx="22" fill="#FFFFFF"/><path d="M704 190h78" stroke="#568267" stroke-width="12" stroke-linecap="round"/><path d="M704 164h42" stroke="#B7792B" stroke-width="10" stroke-linecap="round"/></svg>